# xmcd CD database file
#
# Track frame offsets:
#	150
#	137223
#	213619
#
# Disc length: 4422 seconds
#
# Revision: 0
# Processed by: cddbd v1.4PL0 Copyright (c) Steve Scherf et al.
# Submitted via: CDex 1.51
#
DISCID=2c114403
DTITLE=Trance For Sufies, Dervishes And Qalandars - Sufies, Dervishes And Qalandars
DYEAR=2002
DGENRE=New Age
TTITLE0=Ali Dam Dam Day Andar
TTITLE1=Haazyr Heyn Haazyr Heyn
TTITLE2=Aay Daman Mein Lag Jai
EXTD=YEAR: 2002
EXTT0=
EXTT1=
EXTT2=
PLAYORDER=
